<?xml version="1.0"?>
<svg xmlns="http://www.w3.org/2000/svg" xmlns:xlink="http://www.w3.org/1999/xlink" version="1.1" viewBox="0 0 192 192" width="96px" height="96px"><g fill="none" fill-rule="nonzero" stroke="none" stroke-width="1" stroke-linecap="butt" stroke-linejoin="miter" stroke-miterlimit="10" stroke-dasharray="" stroke-dashoffset="0" font-family="none" font-weight="none" font-size="none" text-anchor="none" style="mix-blend-mode: normal"><path d="M0,192v-192h192v192z" fill="none"/><g id="original-icon" fill="#333333"><path d="M76.032,43.744c6.216,-2.384 12.928,-3.744 19.968,-3.744c30.872,0 56,25.12 56,56c0,7.04 -1.36,13.76 -3.744,19.968l12.112,12.112c4.84,-9.672 7.632,-20.544 7.632,-32.08c0,-39.696 -32.296,-72 -72,-72c-9.92,0 -19.344,2.064 -27.936,5.72z"/><path d="M115.968,148.256c-6.216,2.384 -12.928,3.744 -19.968,3.744c-30.872,0 -56,-25.12 -56,-56c0,-7.04 1.36,-13.76 3.744,-19.968l-12.112,-12.112c-4.84,9.672 -7.632,20.544 -7.632,32.08c0,39.696 32.296,72 72,72c10.208,0 19.888,-2.184 28.688,-6.04z"/><path d="M128,160l-32,32v-64z"/><path d="M64,32l32,-32v64z"/></g></g></svg>
